<?xml version="1.0" encoding="utf-8"?>
<!-- Generator: Adobe Illustrator 21.1.0, SVG Export Plug-In . SVG Version: 6.00 Build 0)  -->
<svg version="1.2" baseProfile="tiny" id="Layer_1" xmlns="http://www.w3.org/2000/svg" xmlns:xlink="http://www.w3.org/1999/xlink"
	 x="0px" y="0px" viewBox="-115.5 38.35 729 486" xml:space="preserve">
<rect x="-128.15" y="29.93" fill="#05A2D3" width="754.31" height="502.84"/>
<path fill="#228DCC" d="M478.3,438.69H0.12V327.2c0-132,107.03-239.04,239.04-239.04l0,0c132,0,239.04,107.03,239.04,239.04v111.49
	H478.3z"/>
<g>
	<path fill="#CCCCCC" stroke="#000000" stroke-linecap="round" stroke-linejoin="round" stroke-miterlimit="10" d="M152.33,430.71
		h-68.9c-6.73,0-12.33-5.49-12.33-12.33v-63c0-6.73,5.49-12.33,12.33-12.33v3.11c-5.08,0-9.22,4.14-9.22,9.22v63
		c0,5.08,4.14,9.22,9.22,9.22h68.9V430.71z"/>
</g>
<path fill="#999999" stroke="#000000" stroke-linecap="round" stroke-linejoin="round" stroke-miterlimit="10" d="M86.33,349.48
	h4.97v-9.84h-4.97c-2.69,0-4.97,2.18-4.97,4.97l0,0C81.35,347.3,83.53,349.48,86.33,349.48z"/>
<g>
	<path fill="#CCCCCC" stroke="#000000" stroke-linecap="round" stroke-linejoin="round" stroke-miterlimit="10" d="M189.53,430.71
		h68.8c6.73,0,12.33-5.49,12.33-12.33v-63c0-6.73-5.49-12.33-12.33-12.33v3.11c5.08,0,9.22,4.14,9.22,9.22v63
		c0,5.08-4.14,9.22-9.22,9.22h-68.9v3.11H189.53z"/>
</g>
<path fill="#999999" stroke="#000000" stroke-linecap="round" stroke-linejoin="round" stroke-miterlimit="10" d="M255.53,349.48
	h-4.97v-9.84h4.97c2.69,0,4.97,2.18,4.97,4.97l0,0C260.4,347.3,258.22,349.48,255.53,349.48z"/>
<path fill="#AEDFFF" stroke="#000000" stroke-linecap="round" stroke-linejoin="round" stroke-miterlimit="10" d="M390.74,438.48
	h-95.12v-60.1c0-8.5,6.94-15.44,15.44-15.44h64.24c8.5,0,15.44,6.94,15.44,15.44V438.48z"/>
<path fill="#E6E6E6" stroke="#000000" stroke-linecap="round" stroke-linejoin="round" stroke-miterlimit="10" d="M352.41,363.36
	L352.41,363.36c-4.25,6.73-14.09,6.73-18.34,0l0,0v-20.72h18.34V363.36z"/>
<path fill="#F2F2F2" d="M243.09,313.42H98.76c-4.77,0-8.5,3.83-8.5,8.5v90.56c0,1.97,0.73,3.73,1.86,5.18l157.91-100.61
	C248.48,314.87,246,313.42,243.09,313.42z"/>
<path fill="#CCCCCC" d="M98.76,421.07h144.33c4.77,0,8.5-3.83,8.5-8.5v-90.56c0-1.86-0.62-3.52-1.55-4.97L92.03,417.76
	C93.58,419.73,95.96,421.07,98.76,421.07z"/>
<path fill="none" stroke="#000000" stroke-linecap="round" stroke-linejoin="round" stroke-miterlimit="10" d="M250.04,317.05
	c-1.55-2.18-4.04-3.63-6.94-3.63H98.76c-4.77,0-8.5,3.83-8.5,8.5v90.56c0,1.97,0.73,3.73,1.86,5.18c1.55,1.97,3.94,3.32,6.73,3.32
	H243.2c4.77,0,8.5-3.83,8.5-8.5v-90.56C251.69,320.15,251.07,318.39,250.04,317.05z"/>
<line fill="none" stroke="#000000" stroke-linecap="round" stroke-linejoin="round" stroke-miterlimit="10" x1="0.12" y1="438.69" x2="478.3" y2="438.69"/>
<path fill="#FFFFFF" stroke="#000000" stroke-linecap="round" stroke-linejoin="round" stroke-miterlimit="10" d="M318.73,318.18
	L318.73,318.18c-3.11,0-4.97,3.32-3.32,6.01l3.32,5.39V318.18z"/>
<path fill="#FFFFFF" stroke="#000000" stroke-linecap="round" stroke-linejoin="round" stroke-miterlimit="10" d="M367.64,318.18
	L367.64,318.18c3.11,0,4.97,3.32,3.32,6.01l-3.32,5.39V318.18z"/>
<path fill="#FFFFFF" stroke="#000000" stroke-linecap="round" stroke-linejoin="round" stroke-miterlimit="10" d="M343.18,353
	L343.18,353c-13.57,0-24.56-10.98-24.56-24.56v-31.39h49.01v31.39C367.64,342.02,356.65,353,343.18,353z"/>
<rect x="354.86" y="304.47" transform="matrix(0.1502 -0.9887 0.9887 0.1502 -4.3637 615.5718)" fill="#4D4D4D" stroke="#000000" stroke-linecap="round" stroke-linejoin="round" stroke-miterlimit="10" width="2.07" height="11.71"/>
<circle cx="354.69" cy="316.53" r="2.38"/>
<rect x="324.45" y="309.3" transform="matrix(0.9887 -0.1502 0.1502 0.9887 -42.862 53.1259)" fill="#4D4D4D" stroke="#000000" stroke-linecap="round" stroke-linejoin="round" stroke-miterlimit="10" width="11.71" height="2.07"/>
<circle cx="331.58" cy="316.53" r="2.38"/>
<line fill="none" stroke="#000000" stroke-linecap="round" stroke-linejoin="round" stroke-miterlimit="10" x1="337.59" y1="337.15" x2="348.68" y2="338.08"/>
<line fill="none" stroke="#000000" stroke-linecap="round" stroke-linejoin="round" stroke-miterlimit="10" x1="340.49" y1="339.43" x2="345.88" y2="339.63"/>
<path fill="#4D4D4D" d="M370.02,293.52c-1.24,0.52-2.69,0.73-4.14,0.73h-46.94c-0.1,0.93-0.21,1.76-0.21,2.69h49.01
	c1.14,0,2.28-0.21,3.32-0.52L370.02,293.52z"/>
<circle fill="#E88995" cx="327.64" cy="328.44" r="3.32"/>
<circle fill="#E88995" cx="358" cy="328.44" r="3.32"/>
<polygon fill="#CCCCCC" points="345.05,310 341.22,310 339.14,329.38 343.18,331.45 347.12,329.38 "/>
<g>
	<path fill="#F2F2F2" d="M334.12,388.02l-18.96,13.16c-0.93,0.62-1.35,1.76-1.24,2.8l-3.42,2.38c-0.62,0.41-0.73,1.24-0.31,1.86
		c0.41,0.62,1.24,0.73,1.87,0.31l3.42-2.38c0.93,0.52,2.18,0.41,3.11-0.21l18.96-13.16c1.35-0.93,1.66-2.8,0.73-4.14
		C337.33,387.3,335.46,386.98,334.12,388.02z"/>
	<path fill="#E6E6E6" d="M310.08,408.33l28.18-19.58c-0.93-1.35-2.8-1.66-4.14-0.73l-18.96,13.16c-0.93,0.62-1.35,1.76-1.24,2.8
		l-3.52,2.38C309.87,406.77,309.66,407.6,310.08,408.33z"/>
	<path fill="none" stroke="#000000" stroke-linecap="round" stroke-linejoin="round" stroke-miterlimit="10" d="M317.31,405.08"/>
	<path fill="none" stroke="#000000" stroke-linecap="round" stroke-linejoin="round" stroke-miterlimit="10" d="M315.57,402.63"/>
	<path fill="none" stroke="#000000" stroke-linecap="round" stroke-linejoin="round" stroke-miterlimit="10" d="M317.23,402.22"/>
	<path fill="none" stroke="#000000" stroke-linecap="round" stroke-linejoin="round" stroke-miterlimit="10" d="M319.82,403.25"/>
	<path fill="none" stroke="#000000" stroke-linecap="round" stroke-linejoin="round" stroke-miterlimit="10" d="M318.06,400.87"/>
	<path fill="none" stroke="#000000" stroke-linecap="round" stroke-linejoin="round" stroke-miterlimit="10" d="M319.71,400.45"/>
	<path fill="none" stroke="#000000" stroke-linecap="round" stroke-linejoin="round" stroke-miterlimit="10" d="M320.65,399.11"/>
	<path fill="none" stroke="#000000" stroke-linecap="round" stroke-linejoin="round" stroke-miterlimit="10" d="M322.3,398.69"/>
	<path fill="none" stroke="#000000" stroke-linecap="round" stroke-linejoin="round" stroke-miterlimit="10" d="M324.79,399.83"/>
	<path fill="none" stroke="#000000" stroke-linecap="round" stroke-linejoin="round" stroke-miterlimit="10" d="M323.13,397.35"/>
	<path fill="none" stroke="#000000" stroke-linecap="round" stroke-linejoin="round" stroke-miterlimit="10" d="M324.79,396.93"/>
	<path fill="none" stroke="#000000" stroke-linecap="round" stroke-linejoin="round" stroke-miterlimit="10" d="M327.28,398.07"/>
	<path fill="none" stroke="#000000" stroke-linecap="round" stroke-linejoin="round" stroke-miterlimit="10" d="M325.62,395.58"/>
	<path fill="none" stroke="#000000" stroke-linecap="round" stroke-linejoin="round" stroke-miterlimit="10" d="M327.28,395.17"/>
	<path fill="none" stroke="#000000" stroke-linecap="round" stroke-linejoin="round" stroke-miterlimit="10" d="M329.87,396.31"/>
	<path fill="none" stroke="#000000" stroke-linecap="round" stroke-linejoin="round" stroke-miterlimit="10" d="M328.11,393.93"/>
	<path fill="none" stroke="#000000" stroke-linecap="round" stroke-linejoin="round" stroke-miterlimit="10" d="M329.76,393.51"/>
	<path fill="none" stroke="#000000" stroke-linecap="round" stroke-linejoin="round" stroke-miterlimit="10" d="M332.35,394.55"/>
	<path fill="none" stroke="#000000" stroke-linecap="round" stroke-linejoin="round" stroke-miterlimit="10" d="M330.59,392.16"/>
	<path fill="none" stroke="#000000" stroke-linecap="round" stroke-linejoin="round" stroke-miterlimit="10" d="M332.25,391.75"/>
	<path fill="none" stroke="#000000" stroke-linecap="round" stroke-linejoin="round" stroke-miterlimit="10" d="M334.84,392.79"/>
	<path fill="none" stroke="#000000" stroke-linecap="round" stroke-linejoin="round" stroke-miterlimit="10" d="M333.18,390.4"/>
	<path fill="none" stroke="#000000" stroke-linecap="round" stroke-linejoin="round" stroke-miterlimit="10" d="M334.12,388.02
		l-18.96,13.16c-0.93,0.62-1.35,1.76-1.24,2.8l-3.42,2.38c-0.62,0.41-0.73,1.24-0.31,1.86c0.41,0.62,1.24,0.73,1.87,0.31l3.42-2.38
		c0.93,0.52,2.18,0.41,3.11-0.21l18.96-13.16c1.35-0.93,1.66-2.8,0.73-4.14C337.33,387.3,335.46,386.98,334.12,388.02z"/>
	<g>
		
			<line fill="none" stroke="#000000" stroke-linecap="round" stroke-linejoin="round" stroke-miterlimit="10" x1="315.57" y1="402.63" x2="317.31" y2="405.08"/>
		
			<line fill="none" stroke="#000000" stroke-linecap="round" stroke-linejoin="round" stroke-miterlimit="10" x1="317.38" y1="401.97" x2="318.45" y2="403.51"/>
		
			<line fill="none" stroke="#000000" stroke-linecap="round" stroke-linejoin="round" stroke-miterlimit="10" x1="318.61" y1="400.48" x2="320.35" y2="402.94"/>
		
			<line fill="none" stroke="#000000" stroke-linecap="round" stroke-linejoin="round" stroke-miterlimit="10" x1="320.42" y1="399.82" x2="321.49" y2="401.36"/>
		
			<line fill="none" stroke="#000000" stroke-linecap="round" stroke-linejoin="round" stroke-miterlimit="10" x1="321.68" y1="398.42" x2="323.41" y2="400.87"/>
		
			<line fill="none" stroke="#000000" stroke-linecap="round" stroke-linejoin="round" stroke-miterlimit="10" x1="323.49" y1="397.76" x2="324.56" y2="399.3"/>
		
			<line fill="none" stroke="#000000" stroke-linecap="round" stroke-linejoin="round" stroke-miterlimit="10" x1="324.72" y1="396.27" x2="326.46" y2="398.72"/>
		
			<line fill="none" stroke="#000000" stroke-linecap="round" stroke-linejoin="round" stroke-miterlimit="10" x1="326.53" y1="395.61" x2="327.6" y2="397.15"/>
		
			<line fill="none" stroke="#000000" stroke-linecap="round" stroke-linejoin="round" stroke-miterlimit="10" x1="327.7" y1="394.15" x2="329.44" y2="396.6"/>
		
			<line fill="none" stroke="#000000" stroke-linecap="round" stroke-linejoin="round" stroke-miterlimit="10" x1="329.51" y1="393.49" x2="330.58" y2="395.03"/>
	</g>
	
		<line fill="none" stroke="#E56A73" stroke-linecap="round" stroke-linejoin="round" stroke-miterlimit="10" x1="325.31" y1="397.66" x2="313.08" y2="406.15"/>
</g>
<path fill="#E6E6E6" stroke="#000000" stroke-linecap="round" stroke-linejoin="round" stroke-miterlimit="10" d="M191.6,438.69
	h-41.45v-61.03c0-1.14,0.93-2.07,2.07-2.07h37.3c1.14,0,2.07,0.93,2.07,2.07V438.69z"/>
<circle fill="#CCCCCC" stroke="#000000" stroke-linecap="round" stroke-linejoin="round" stroke-miterlimit="10" cx="170.88" cy="392.37" r="7.25"/>
<g>
	<path fill="#E6E6E6" stroke="#000000" stroke-linecap="round" stroke-linejoin="round" stroke-miterlimit="10" d="M235.84,313.42
		h-3.11v-99.26c0-30.88,25.07-55.95,55.95-55.95c14.92,0,29.01,5.8,39.58,16.37s16.37,24.66,16.37,39.58v62.27h-3.11v-62.27
		c0-14.09-5.49-27.35-15.44-37.4c-9.95-9.95-23.21-15.44-37.4-15.44c-29.12,0-52.84,23.73-52.84,52.84V313.42z"/>
</g>
<path fill="none" stroke="#000000" stroke-linecap="round" stroke-linejoin="round" stroke-miterlimit="10" d="M359.45,279.43
	h-23.21c-9.74,0-17.61,7.87-17.61,17.61l0,0h49.01C376.65,297.05,367.33,283.78,359.45,279.43L359.45,279.43z"/>
<g>
	<path fill="none" stroke="#8FDBF2" stroke-linecap="round" stroke-linejoin="round" stroke-miterlimit="10" d="M59.28,327.82
		l-2.38,0.73c-1.76,0.52-3.52-0.41-4.14-2.07l-3.32-10.05c-0.52-1.76,0.41-3.52,2.07-4.14l2.38-0.73c1.76-0.52,3.52,0.41,4.14,2.07
		l3.32,10.05C61.98,325.44,61.04,327.3,59.28,327.82z"/>
	
		<line fill="none" stroke="#8FDBF2" stroke-linecap="round" stroke-linejoin="round" stroke-miterlimit="10" x1="51.2" y1="321.5" x2="59.8" y2="318.7"/>
</g>
<path fill="#4D4D4D" stroke="#000000" stroke-linecap="round" stroke-linejoin="round" stroke-miterlimit="10" d="M370.18,295.6
	c0.92-4.21-10.83-16.17-10.83-16.17h-23.11c-5.87,0-11.85,1.55-15.05,5.95l-3.91,3.22l-2.26,4.68l0.12,4.94
	c-1.22,1.01-2,2.54-2,4.22v13.47c0,3.21,2.49,5.6,5.49,5.6v-20.14c0-2.28,1.85-4.14,4.13-4.15l40.41-0.15
	c2.46-0.01,4.47,1.99,4.47,4.45v19.99c3.11,0,5.6-2.38,5.49-5.6v-13.47C373.13,300.59,371.76,297.21,370.18,295.6z"/>
<g>
	<path fill="none" stroke="#47BCEA" stroke-linecap="round" stroke-linejoin="round" stroke-miterlimit="10" d="M291.27,222.24
		L291.27,222.24c-2.18-1.24-2.8-4.04-1.55-6.22l4.04-6.94c1.24-2.18,4.04-2.8,6.22-1.55l0,0c2.18,1.24,2.8,4.04,1.55,6.22
		l-4.04,6.94C296.14,222.76,293.45,223.48,291.27,222.24z"/>
	
		<line fill="none" stroke="#47BCEA" stroke-linecap="round" stroke-linejoin="round" stroke-miterlimit="10" x1="291.79" y1="212.6" x2="299.46" y2="217.26"/>
</g>
<g>
	<path fill="none" stroke="#47BCEA" stroke-linecap="round" stroke-linejoin="round" stroke-miterlimit="10" d="M61.87,186.08
		L61.87,186.08c-1.76,0.21-3.42-0.93-3.73-2.8l-0.83-5.7c-0.21-1.76,0.93-3.42,2.8-3.73l0,0c1.76-0.21,3.42,0.93,3.73,2.8l0.83,5.7
		C64.88,184.11,63.63,185.77,61.87,186.08z"/>
	
		<line fill="none" stroke="#47BCEA" stroke-linecap="round" stroke-linejoin="round" stroke-miterlimit="10" x1="57.73" y1="180.38" x2="64.15" y2="179.45"/>
</g>
<g>
	<path fill="none" stroke="#8FDBF2" stroke-linecap="round" stroke-linejoin="round" stroke-miterlimit="10" d="M182.27,131.37
		L182.27,131.37c-1.35,1.24-3.42,1.04-4.56-0.31l-3.83-4.35c-1.24-1.35-1.04-3.42,0.31-4.56l0,0c1.35-1.24,3.42-1.04,4.56,0.31
		l3.83,4.35C183.72,128.05,183.62,130.13,182.27,131.37z"/>
	
		<line fill="none" stroke="#8FDBF2" stroke-linecap="round" stroke-linejoin="round" stroke-miterlimit="10" x1="175.75" y1="128.88" x2="180.61" y2="124.63"/>
</g>
<g>
	<path fill="none" stroke="#8FDBF2" stroke-linecap="round" stroke-linejoin="round" stroke-miterlimit="10" d="M256.05,293.94
		L256.05,293.94c-1.24-1.35-1.14-3.42,0.21-4.56l4.35-3.83c1.35-1.24,3.42-1.14,4.56,0.21l0,0c1.24,1.35,1.14,3.42-0.21,4.56
		l-4.35,3.83C259.36,295.39,257.29,295.29,256.05,293.94z"/>
	
		<line fill="none" stroke="#8FDBF2" stroke-linecap="round" stroke-linejoin="round" stroke-miterlimit="10" x1="258.53" y1="287.41" x2="262.88" y2="292.28"/>
</g>
<g>
	<path fill="none" stroke="#3BAACC" stroke-linecap="round" stroke-linejoin="round" stroke-miterlimit="10" d="M429.18,294.25
		L429.18,294.25c-1.66,0.62-3.52-0.21-4.14-1.86l-2.07-5.39c-0.62-1.66,0.21-3.52,1.86-4.14l0,0c1.66-0.62,3.52,0.21,4.14,1.87
		l2.07,5.39C431.77,291.76,430.84,293.63,429.18,294.25z"/>
	
		<line fill="none" stroke="#3BAACC" stroke-linecap="round" stroke-linejoin="round" stroke-miterlimit="10" x1="424" y1="289.59" x2="430.12" y2="287.31"/>
</g>
<g>
	<path fill="none" stroke="#8FDBF2" stroke-linecap="round" stroke-linejoin="round" stroke-miterlimit="10" d="M397.89,134.79
		L397.89,134.79c-1.66-0.62-2.59-2.38-2.07-4.14l1.87-5.49c0.62-1.66,2.38-2.59,4.14-2.07l0,0c1.66,0.62,2.59,2.38,2.07,4.14
		l-1.87,5.49C401.42,134.37,399.55,135.31,397.89,134.79z"/>
	
		<line fill="none" stroke="#8FDBF2" stroke-linecap="round" stroke-linejoin="round" stroke-miterlimit="10" x1="396.75" y1="127.85" x2="402.87" y2="129.92"/>
</g>
<circle fill="#228DCC" cx="111.71" cy="138.73" r="4.14"/>
<circle fill="#7DCDF4" cx="132.23" cy="288.24" r="2.07"/>
<circle fill="#E88995" cx="111.71" cy="212.6" r="2.07"/>
<circle fill="#E88995" cx="346.71" cy="120.8" r="4.25"/>
<circle fill="#65C1EF" cx="439.03" cy="353" r="2.07"/>
<circle fill="#65C1EF" cx="169.84" cy="196.85" r="7.98"/>
<circle fill="#05A2D3" cx="430.12" cy="231.15" r="16.37"/>
<circle fill="#7DCDF4" cx="-10.76" cy="292.59" r="4.14"/>
<circle fill="#7DCDF4" cx="274.8" cy="84.02" r="4.14"/>
<g>
	<path fill="#CCCCCC" stroke="#000000" stroke-linecap="round" stroke-linejoin="round" stroke-miterlimit="10" d="M347.12,276.32
		h-3.94h-0.21h-3.94c-15.13,0-27.46,12.33-27.46,27.46c0,1.45,1.14,2.59,2.59,2.59h28.8h0.21h28.8c1.45,0,2.59-1.14,2.59-2.59
		C374.58,288.65,362.25,276.32,347.12,276.32z M367.02,289.79h-22.28v-10.36h2.38C355.31,279.43,362.56,283.58,367.02,289.79z
		 M339.04,279.43h2.59v10.36h-22.48C323.5,283.58,330.75,279.43,339.04,279.43z M317.18,292.9h24.35v10.36h-26.94
		C314.79,299.64,315.62,296.11,317.18,292.9z M344.74,303.26V292.9h24.14c1.55,3.11,2.49,6.63,2.59,10.36H344.74z"/>
	<g>
		
			<circle fill="#999999" stroke="#000000" stroke-linecap="round" stroke-linejoin="round" stroke-miterlimit="10" cx="343.18" cy="291.35" r="2.8"/>
		
			<circle fill="#999999" stroke="#000000" stroke-linecap="round" stroke-linejoin="round" stroke-miterlimit="10" cx="369.81" cy="291.35" r="2.8"/>
		
			<circle fill="#999999" stroke="#000000" stroke-linecap="round" stroke-linejoin="round" stroke-miterlimit="10" cx="316.25" cy="291.35" r="2.8"/>
		
			<circle fill="#999999" stroke="#000000" stroke-linecap="round" stroke-linejoin="round" stroke-miterlimit="10" cx="343.18" cy="303.58" r="2.8"/>
		
			<circle fill="#999999" stroke="#000000" stroke-linecap="round" stroke-linejoin="round" stroke-miterlimit="10" cx="372.2" cy="303.58" r="2.8"/>
		
			<circle fill="#999999" stroke="#000000" stroke-linecap="round" stroke-linejoin="round" stroke-miterlimit="10" cx="314.38" cy="303.58" r="2.8"/>
	</g>
</g>
<path fill="#47BCEA" d="M206.93,261.72L206.93,261.72h-4.25c-1.14,0-2.07-0.93-2.07-2.07v-4.25l0,0c0-0.31-0.21-0.52-0.52-0.52
	c-0.31,0-0.52,0.21-0.52,0.52l0,0v4.25c0,1.14-0.93,2.07-2.07,2.07h-4.25l0,0c-0.31,0-0.52,0.21-0.52,0.52
	c0,0.31,0.21,0.52,0.52,0.52l0,0h4.25c1.14,0,2.07,0.93,2.07,2.07v4.25l0,0c0,0.31,0.21,0.52,0.52,0.52c0.31,0,0.52-0.21,0.52-0.52
	l0,0v-4.25c0-1.14,0.93-2.07,2.07-2.07h4.25l0,0c0.31,0,0.52-0.21,0.52-0.52C207.45,261.92,207.24,261.72,206.93,261.72z"/>
<path fill="#98DEF4" d="M386.08,194.37L386.08,194.37h-3.42c-0.93,0-1.76-0.73-1.76-1.76v-3.42l0,0c0-0.21-0.21-0.41-0.41-0.41
	c-0.21,0-0.41,0.21-0.41,0.41l0,0v3.42c0,0.93-0.73,1.76-1.76,1.76h-3.42l0,0c-0.21,0-0.41,0.21-0.41,0.41
	c0,0.21,0.21,0.41,0.41,0.41l0,0h3.42c0.93,0,1.76,0.73,1.76,1.76v3.42l0,0c0,0.21,0.21,0.41,0.41,0.41c0.21,0,0.41-0.21,0.41-0.41
	l0,0v-3.42c0-0.93,0.73-1.76,1.76-1.76h3.42l0,0c0.21,0,0.41-0.21,0.41-0.41C386.5,194.57,386.29,194.37,386.08,194.37z"/>
<path fill="#98DEF4" d="M40.32,245.14L40.32,245.14h-2.69c-0.73,0-1.35-0.62-1.35-1.35v-2.69l0,0c0-0.21-0.1-0.31-0.31-0.31
	c-0.21,0-0.31,0.1-0.31,0.31l0,0v2.69c0,0.73-0.62,1.35-1.35,1.35h-2.69l0,0c-0.21,0-0.31,0.1-0.31,0.31c0,0.21,0.1,0.31,0.31,0.31
	l0,0h2.69c0.73,0,1.35,0.62,1.35,1.35v2.69l0,0c0,0.21,0.1,0.31,0.31,0.31c0.21,0,0.31-0.1,0.31-0.31l0,0v-2.69
	c0-0.73,0.62-1.35,1.35-1.35h2.69l0,0c0.21,0,0.31-0.1,0.31-0.31C40.74,245.24,40.53,245.14,40.32,245.14z"/>
<path fill="#98DEF4" d="M35.35,411.75L35.35,411.75h-3.42c-0.93,0-1.76-0.73-1.76-1.76v-3.42l0,0c0-0.21-0.21-0.41-0.41-0.41
	c-0.21,0-0.41,0.21-0.41,0.41l0,0v3.42c0,0.93-0.73,1.76-1.76,1.76h-3.42l0,0c-0.21,0-0.41,0.21-0.41,0.41
	c0,0.21,0.21,0.41,0.41,0.41l0,0h3.42c0.93,0,1.76,0.73,1.76,1.76v3.42l0,0c0,0.21,0.21,0.41,0.41,0.41c0.21,0,0.41-0.21,0.41-0.41
	l0,0v-3.42c0-0.93,0.73-1.76,1.76-1.76h3.42l0,0c0.21,0,0.41-0.21,0.41-0.41C35.76,411.96,35.56,411.75,35.35,411.75z"/>
<path fill="#98DEF4" d="M119.38,99.35L119.38,99.35h-3.42c-0.93,0-1.76-0.73-1.76-1.76v-3.42l0,0c0-0.21-0.21-0.41-0.41-0.41
	c-0.21,0-0.41,0.21-0.41,0.41l0,0v3.42c0,0.93-0.73,1.76-1.76,1.76h-3.42l0,0c-0.21,0-0.41,0.21-0.41,0.41s0.21,0.41,0.41,0.41l0,0
	h3.42c0.93,0,1.76,0.73,1.76,1.76v3.42l0,0c0,0.21,0.21,0.41,0.41,0.41c0.21,0,0.41-0.21,0.41-0.41l0,0v-3.42
	c0-0.93,0.73-1.76,1.76-1.76h3.42l0,0c0.21,0,0.41-0.21,0.41-0.41S119.59,99.35,119.38,99.35z"/>
<path fill="#98DEF4" d="M242.27,124.74L242.27,124.74h-1.87c-0.52,0-0.93-0.41-0.93-0.93v-1.86l0,0c0-0.1-0.1-0.21-0.21-0.21
	c-0.1,0-0.21,0.1-0.21,0.21l0,0v1.86c0,0.52-0.41,0.93-0.93,0.93h-1.87l0,0c-0.1,0-0.21,0.1-0.21,0.21c0,0.1,0.1,0.21,0.21,0.21l0,0
	h1.87c0.52,0,0.93,0.41,0.93,0.93v1.87l0,0c0,0.1,0.1,0.21,0.21,0.21c0.1,0,0.21-0.1,0.21-0.21l0,0v-1.87
	c0-0.52,0.41-0.93,0.93-0.93h1.87l0,0c0.1,0,0.21-0.1,0.21-0.21C242.47,124.84,242.37,124.74,242.27,124.74z"/>
<polyline fill="#AEDFFF" stroke="#000000" stroke-linecap="round" stroke-linejoin="round" stroke-miterlimit="10" points="
	315.52,396.62 315.52,403.25 293.66,403.25 295.73,376.42 "/>
<rect x="295.63" y="403.25" fill="#FFFFFF" stroke="#000000" stroke-linecap="round" stroke-linejoin="round" stroke-miterlimit="10" width="18.86" height="35.44"/>
<path fill="#FFFFFF" stroke="#000000" stroke-linecap="round" stroke-linejoin="round" stroke-miterlimit="10" d="M371.26,399.11
	L371.26,399.11c0,12.33-9.64,22.48-21.97,23l-24.97,2.38l-4.97-1.66c-0.41-0.1-0.83-0.21-1.24-0.1l0,0
	c-1.14,0.21-1.87,1.24-1.87,2.38v0.52l-9.84,1.55c-1.97,0.31-3.52,2.07-3.52,4.14v3.11c0,2.28,1.87,4.14,4.14,4.14h41.45
	c23.11,0,41.96-18.75,41.96-41.96v-18.34L371.26,399.11z"/>
<polyline fill="#AEDFFF" stroke="#000000" stroke-linecap="round" stroke-linejoin="round" stroke-miterlimit="10" points="
	370.95,396.62 370.95,403.25 392.82,403.25 390.74,376.42 "/>
<path fill="#E6E6E6" stroke="#000000" stroke-linecap="round" stroke-linejoin="round" stroke-miterlimit="10" d="M345.78,438.69
	h-20V421.8c0-0.93,0.73-1.76,1.76-1.76h16.58c0.93,0,1.76,0.73,1.76,1.76v16.89H345.78z"/>
<rect x="327.95" y="425.11" fill="#CCCCCC" stroke="#000000" stroke-linecap="round" stroke-linejoin="round" stroke-miterlimit="10" width="15.23" height="9.43"/>
<g>
	<path fill="#CCCCCC" stroke="#000000" stroke-linecap="round" stroke-linejoin="round" stroke-miterlimit="10" d="M340.62,467.61
		H200.75c-10.96,0-19.87-8.91-19.87-19.87v-9.05h2.59v9.05c0,9.53,7.75,17.28,17.28,17.28h139.88c9.53,0,17.28-7.75,17.28-17.28
		v-45.42h2.59v45.42C360.5,458.7,351.58,467.61,340.62,467.61z"/>
</g>
<g>
	
		<circle fill="#B3B3B3" stroke="#000000" stroke-linecap="round" stroke-linejoin="round" stroke-miterlimit="10" cx="359.23" cy="396.62" r="6.01"/>
	<circle fill="#808080" cx="359.23" cy="396.62" r="3.63"/>
</g>
<path fill="none" stroke="#000000" stroke-linecap="round" stroke-linejoin="round" stroke-miterlimit="10" d="M332.5,394.54"/>
<path fill="none" stroke="#000000" stroke-linecap="round" stroke-linejoin="round" stroke-miterlimit="10" d="M330.77,392.08"/>
<path fill="none" stroke="#000000" stroke-linecap="round" stroke-linejoin="round" stroke-miterlimit="10" d="M333.65,392.96"/>
<path fill="none" stroke="#000000" stroke-linecap="round" stroke-linejoin="round" stroke-miterlimit="10" d="M332.58,391.42"/>
<path fill="none" stroke="#000000" stroke-linecap="round" stroke-linejoin="round" stroke-miterlimit="10" d="M335.55,392.39"/>
<path fill="none" stroke="#000000" stroke-linecap="round" stroke-linejoin="round" stroke-miterlimit="10" d="M333.81,389.94"/>
<path fill="none" stroke="#000000" stroke-linecap="round" stroke-linejoin="round" stroke-miterlimit="10" d="M336.69,390.82"/>
<path fill="none" stroke="#000000" stroke-linecap="round" stroke-linejoin="round" stroke-miterlimit="10" d="M335.62,389.28"/>
</svg>
